<mxfile host="app.diagrams.net" modified="2023-10-18T07:54:59.863Z" agent="Mozilla/5.0 (Windows NT 10.0; Win64; x64) AppleWebKit/537.36 (KHTML, like Gecko) Chrome/118.0.0.0 Safari/537.36 Edg/118.0.2088.46" version="21.5.2" etag="8e0r-DCAWC5tXoRg2eFy" type="github">
  <diagram name="Page-1" id="AAT_LTAlR_PftDoZx86i">
    <mxGraphModel>
      <root>
        <mxCell id="0" />
        <mxCell id="1" parent="0" />
      </root>
    </mxGraphModel>
  </diagram>
</mxfile>
